<?xml version="1.0" encoding="UTF-8"?>
<svg xmlns="http://www.w3.org/2000/svg" xmlns:xlink="http://www.w3.org/1999/xlink" width="24pt" height="24pt" viewBox="0 0 24 24" version="1.1">
<g id="surface1">
<path style=" stroke:none;fill-rule:nonzero;fill:rgb(100%,100%,100%);fill-opacity:1;" d="M 7.746094 21.851562 C 5.078125 21.851562 2.484375 21.09375 0.246094 19.652344 C 0.0351562 19.519531 -0.0507812 19.257812 0.03125 19.023438 C 0.113281 18.789062 0.351562 18.640625 0.597656 18.675781 C 2.476562 18.894531 4.4375 18.511719 6.082031 17.570312 C 4.453125 17.082031 3.132812 15.824219 2.597656 14.152344 C 2.539062 13.972656 2.582031 13.773438 2.707031 13.632812 C 2.785156 13.546875 2.886719 13.492188 2.996094 13.46875 C 1.722656 12.5 0.921875 10.972656 0.921875 9.292969 C 0.921875 9.105469 1.023438 8.902344 1.183594 8.804688 C 1.347656 8.710938 1.550781 8.679688 1.714844 8.769531 C 1.761719 8.796875 1.808594 8.820312 1.859375 8.84375 C 1.28125 7.992188 0.960938 6.972656 0.960938 5.90625 C 0.960938 4.984375 1.203125 4.070312 1.667969 3.273438 C 1.757812 3.121094 1.914062 3.023438 2.089844 3.011719 C 2.261719 2.996094 2.433594 3.070312 2.542969 3.203125 C 4.703125 5.851562 7.824219 7.53125 11.195312 7.875 C 11.179688 7.714844 11.171875 7.550781 11.171875 7.386719 C 11.171875 4.5 13.523438 2.148438 16.410156 2.148438 C 17.753906 2.148438 19.050781 2.667969 20.019531 3.585938 C 20.910156 3.382812 21.765625 3.039062 22.5625 2.566406 C 22.753906 2.457031 22.992188 2.472656 23.164062 2.609375 C 23.339844 2.746094 23.410156 2.976562 23.339844 3.1875 C 23.171875 3.71875 22.921875 4.214844 22.597656 4.660156 C 22.820312 4.582031 23.035156 4.496094 23.25 4.402344 C 23.464844 4.304688 23.722656 4.363281 23.875 4.546875 C 24.027344 4.726562 24.042969 4.988281 23.910156 5.1875 C 23.289062 6.109375 22.535156 6.917969 21.664062 7.585938 C 21.667969 7.699219 21.667969 7.816406 21.667969 7.933594 C 21.667969 14.773438 16.460938 21.851562 7.746094 21.851562 Z M 2.699219 19.753906 C 4.285156 20.429688 6 20.785156 7.746094 20.785156 C 15.792969 20.785156 20.601562 14.25 20.601562 7.929688 C 20.601562 7.734375 20.59375 7.539062 20.589844 7.34375 C 20.582031 7.164062 20.664062 6.996094 20.808594 6.890625 C 21.191406 6.613281 21.554688 6.304688 21.886719 5.972656 C 21.539062 6.054688 21.1875 6.117188 20.828125 6.15625 C 20.582031 6.191406 20.34375 6.039062 20.261719 5.800781 C 20.179688 5.5625 20.273438 5.300781 20.492188 5.171875 C 20.914062 4.917969 21.285156 4.59375 21.589844 4.21875 C 21.058594 4.421875 20.511719 4.582031 19.949219 4.691406 C 19.769531 4.726562 19.582031 4.667969 19.457031 4.53125 C 18.671875 3.695312 17.5625 3.214844 16.410156 3.214844 C 14.113281 3.214844 12.238281 5.085938 12.238281 7.386719 C 12.238281 7.707031 12.277344 8.027344 12.347656 8.339844 C 12.386719 8.5 12.347656 8.671875 12.238281 8.800781 C 12.132812 8.929688 11.96875 9.019531 11.800781 8.992188 C 8.160156 8.808594 4.730469 7.191406 2.265625 4.515625 C 2.109375 4.960938 2.027344 5.429688 2.027344 5.90625 C 2.027344 7.308594 2.722656 8.601562 3.882812 9.378906 C 4.082031 9.511719 4.167969 9.757812 4.09375 9.984375 C 4.019531 10.210938 3.796875 10.347656 3.570312 10.355469 C 3.0625 10.339844 2.554688 10.25 2.074219 10.085938 C 2.402344 11.742188 3.671875 13.050781 5.332031 13.382812 C 5.578125 13.433594 5.753906 13.640625 5.761719 13.890625 C 5.769531 14.136719 5.609375 14.355469 5.371094 14.421875 C 4.910156 14.546875 4.425781 14.617188 3.953125 14.609375 C 4.667969 15.871094 6.011719 16.695312 7.507812 16.726562 C 7.734375 16.730469 7.933594 16.875 8.003906 17.089844 C 8.074219 17.304688 8.003906 17.539062 7.828125 17.679688 C 6.328125 18.855469 4.570312 19.558594 2.699219 19.753906 Z M 2.699219 19.753906 "/>
</g>
</svg>
